<svg id="SvgjsSvg1001" width="288" height="288" xmlns="http://www.w3.org/2000/svg" version="1.1" xmlns:xlink="http://www.w3.org/1999/xlink" xmlns:svgjs="http://svgjs.com/svgjs"><defs id="SvgjsDefs1002"></defs><g id="SvgjsG1008" transform="matrix(1,0,0,1,0,0)"><svg xmlns="http://www.w3.org/2000/svg" width="288" height="288" version="1.0" viewBox="0 0 512 512"><g transform="matrix(.1 0 0 -.1 0 512)" fill="#ec4d37" class="color000 svgShape"><path d="M2105 4940 c-332 -4 -374 -7 -398 -23 -41 -27 -56 -57 -72 -143 -20-112 -32 -150 -73 -229 -51 -100 -171 -217 -281 -275 -50 -27 -94 -58 -110
-79 -24 -33 -26 -41 -25 -140 2 -234 114 -621 269 -933 229 -462 564 -808
1008 -1043 140 -74 154 -74 283 -5 432 230 763 572 987 1016 132 260 219 531
267 824 40 246 25 297 -105 362 -212 107 -339 277 -379 506 -16 93 -35 126
-87 153 -36 18 -60 19 -476 17 -241 -1 -605 -5 -808 -8z m1220 -167 c33 -175
91 -307 179 -414 64 -77 174 -163 265 -209 l64 -32 -7 -80 c-17 -207 -111
-546 -217 -782 -138 -309 -357 -601 -609 -811 -90 -75 -269 -194 -362 -241
l-68 -34 -77 39 c-89 44 -273 164 -348 224 -455 372 -754 921 -850 1567 -7 47
-10 90 -8 97 2 6 18 17 35 24 58 24 173 106 235 168 110 110 188 260 219 419
8 41 14 76 14 78 0 4 319 7 1112 12 l418 2 5 -27z" fill="#ec4d37" class="color000 svgShape"></path><path d="M2358 4661 c-464 -7 -445 -3 -482 -97 -84 -215 -185 -355 -331 -459
-94 -68 -110 -89 -109 -143 1 -26 13 -99 27 -162 21 -92 32 -119 52 -137 33
-29 57 -29 91 0 33 28 33 44 4 178 l-23 104 39 30 c73 57 186 170 235 236 48
65 115 189 140 262 l13 37 296 0 c162 0 405 3 541 7 l245 6 18 -49 c39 -105
108 -219 196 -323 41 -48 165 -156 207 -179 16 -9 15 -17 -5 -114 -27 -127
-27 -160 -4 -181 32 -29 67 -31 96 -5 27 23 46 85 76 250 16 89 2 117 -90 182
-87 61 -214 193 -258 268 -18 31 -52 100 -76 154 -61 142 -54 139 -294 140
-108 0 -380 -2 -604 -5z" fill="#ec4d37" class="color000 svgShape"></path><path d="M2987 4039 c-10 -6 -120 -164 -244 -352 -124 -188 -227 -344 -229
-346 -2 -2 -63 53 -135 123 -123 118 -145 132 -189 126 -28 -4 -50 -33 -50
-67 0 -39 11 -52 214 -242 70 -67 139 -124 153 -127 13 -4 36 -1 49 5 32 14
544 785 544 819 0 50 -68 87 -113 61z" fill="#ec4d37" class="color000 svgShape"></path><path d="M3417 3469c-9-6-47-71-83-145-132-271-287-474-499-652-95-80-246-182-268-182-8 0-61 31-118 69-288 190-517 459-671 787-45 97-67 124-102 124-36 0-76-37-76-70 0-34 79-201 152-322 90-150 168-248 303-384 138-140 239-220 391-311 82-48 99-55 132-50 109 14 448 282 612 482 140 171 334 516 334 593 0 56-58 90-107 61zM144 2581c-47-12-88-40-114-79l-25-36 0-1027 0-1027 31-39c59-74 55-73 459-73 402 0 400 0 457 71 21 26 31 52 36 96l7 60 445-169c486-185 527-198 612-198 56 0 1609 221 1678 239 94 24 182 66 259 123 115 86 1053 940 1081 984 98 154 40 358-124 441-62 31-156 41-223 23-34-9-200-115-558-355l-510-341-85 3c-131 6-126 3-134 75-22 187-179 353-366 388-30 6-291 31-579 56l-524 45-86 35c-47 20-166 78-264 131-250 134-380 180-559 198l-66 6-4 128c-3 117-5 131-28 164-13 20-43 46-65 59-39 23-45 23-380 25-187 1-354-2-371-6zm677-151c18-10 19-24 19-291l0-280 25-24c31-32 69-32 100 0 23 22 25 31 25 126l0 101 63-7c154-17 233-46 522-195 127-65 262-129 301-143 63-22 129-30 610-72 325-28 559-52 588-61 65-20 125-63 160-112 30-43 56-119 56-162l0-26-714-44c-700-43-715-43-755-26-22 10-50 29-62 42-46 49-129 19-129-46 0-40 45-89 117-126 57-29 60-29 213-27 85 1 412 18 725 38 608 39 699 43 895 35l125-5 500 336c275 185 515 344 534 354 43 22 121 16 159-12 66-49 89-129 57-197-12-25-168-171-503-474-267-240-506-454-530-474-58-47-152-94-227-112-33-8-409-65-835-127-579-83-790-110-835-106-46 4-176 49-545 190l-485 184-5 447-5 448-24 19c-30 24-62 24-92 0l-24-19-5-564-5-563-340 0-340 0-3 980c-2 912-1 981 15 993 22 16 624 18 654 2z" fill="#ec4d37" class="color000 svgShape"></path><path d="M375 1087 c-97 -46 -146 -120 -153 -228 -14 -233 262 -366 433 -208
61 56 88 115 88 193 0 148 -103 256 -253 263 -53 3 -74 -1 -115 -20z m164
-143 c38 -22 52 -49 53 -95 1 -50 -24 -87 -70 -106 -74 -31 -152 22 -152 105
0 87 94 140 169 96z" fill="#ec4d37" class="color000 svgShape"></path></g></svg></g></svg>